<mxfile host="app.diagrams.net" agent="Mozilla/5.0 (X11; Linux x86_64; rv:128.0) Gecko/20100101 Firefox/128.0" version="26.0.11">
  <diagram name="第 1 页" id="aH6ZTaXwP5k0bfcdlkgT">
    <mxGraphModel dx="1234" dy="411" grid="1" gridSize="10" guides="1" tooltips="1" connect="1" arrows="1" fold="1" page="1" pageScale="1" pageWidth="827" pageHeight="1169" math="1" shadow="0">
      <root>
        <mxCell id="0" />
        <mxCell id="1" parent="0" />
        <mxCell id="OK1sKgkIxB2whGgdd0nA-53" value="" style="rounded=1;whiteSpace=wrap;html=1;fillColor=none;" parent="1" vertex="1">
          <mxGeometry x="130" y="190" width="780" height="310" as="geometry" />
        </mxCell>
        <mxCell id="OK1sKgkIxB2whGgdd0nA-96" value="" style="rounded=1;whiteSpace=wrap;html=1;fillColor=none;" parent="1" vertex="1">
          <mxGeometry x="127" y="545" width="780" height="310" as="geometry" />
        </mxCell>
        <mxCell id="OK1sKgkIxB2whGgdd0nA-46" value="" style="rounded=0;whiteSpace=wrap;html=1;fillColor=none;" parent="1" vertex="1">
          <mxGeometry x="490.5" y="441" width="90" height="40" as="geometry" />
        </mxCell>
        <mxCell id="OK1sKgkIxB2whGgdd0nA-2" style="edgeStyle=orthogonalEdgeStyle;rounded=0;orthogonalLoop=1;jettySize=auto;html=1;exitX=1;exitY=0.5;exitDx=0;exitDy=0;entryX=0;entryY=0.5;entryDx=0;entryDy=0;" parent="1" source="OK1sKgkIxB2whGgdd0nA-4" target="OK1sKgkIxB2whGgdd0nA-7" edge="1">
          <mxGeometry relative="1" as="geometry" />
        </mxCell>
        <mxCell id="OK1sKgkIxB2whGgdd0nA-3" style="edgeStyle=orthogonalEdgeStyle;rounded=0;orthogonalLoop=1;jettySize=auto;html=1;exitX=0.5;exitY=1;exitDx=0;exitDy=0;entryX=0.5;entryY=0;entryDx=0;entryDy=0;" parent="1" source="OK1sKgkIxB2whGgdd0nA-4" target="OK1sKgkIxB2whGgdd0nA-17" edge="1">
          <mxGeometry relative="1" as="geometry" />
        </mxCell>
        <mxCell id="OK1sKgkIxB2whGgdd0nA-4" value="&lt;font style=&quot;font-size: 20px;&quot;&gt;FWD 1&lt;/font&gt;" style="rounded=1;whiteSpace=wrap;html=1;fontFamily=Helvetica;" parent="1" vertex="1">
          <mxGeometry x="340" y="210" width="90" height="60" as="geometry" />
        </mxCell>
        <mxCell id="OK1sKgkIxB2whGgdd0nA-5" style="edgeStyle=orthogonalEdgeStyle;rounded=0;orthogonalLoop=1;jettySize=auto;html=1;exitX=1;exitY=0.5;exitDx=0;exitDy=0;entryX=0;entryY=0.5;entryDx=0;entryDy=0;" parent="1" source="OK1sKgkIxB2whGgdd0nA-7" target="OK1sKgkIxB2whGgdd0nA-9" edge="1">
          <mxGeometry relative="1" as="geometry" />
        </mxCell>
        <mxCell id="OK1sKgkIxB2whGgdd0nA-6" style="edgeStyle=orthogonalEdgeStyle;rounded=0;orthogonalLoop=1;jettySize=auto;html=1;exitX=0.5;exitY=1;exitDx=0;exitDy=0;" parent="1" source="OK1sKgkIxB2whGgdd0nA-7" target="OK1sKgkIxB2whGgdd0nA-15" edge="1">
          <mxGeometry relative="1" as="geometry" />
        </mxCell>
        <mxCell id="OK1sKgkIxB2whGgdd0nA-7" value="&lt;font style=&quot;font-size: 20px;&quot;&gt;FWD 2&lt;/font&gt;" style="rounded=1;whiteSpace=wrap;html=1;fontFamily=Helvetica;" parent="1" vertex="1">
          <mxGeometry x="490" y="210" width="90" height="60" as="geometry" />
        </mxCell>
        <mxCell id="OK1sKgkIxB2whGgdd0nA-8" style="edgeStyle=orthogonalEdgeStyle;rounded=0;orthogonalLoop=1;jettySize=auto;html=1;entryX=0.5;entryY=0;entryDx=0;entryDy=0;" parent="1" source="OK1sKgkIxB2whGgdd0nA-9" target="OK1sKgkIxB2whGgdd0nA-12" edge="1">
          <mxGeometry relative="1" as="geometry" />
        </mxCell>
        <mxCell id="OK1sKgkIxB2whGgdd0nA-9" value="&lt;font style=&quot;font-size: 20px;&quot;&gt;FWD 3&lt;/font&gt;" style="rounded=1;whiteSpace=wrap;html=1;fontFamily=Helvetica;" parent="1" vertex="1">
          <mxGeometry x="640" y="210" width="90" height="60" as="geometry" />
        </mxCell>
        <mxCell id="OK1sKgkIxB2whGgdd0nA-10" style="edgeStyle=orthogonalEdgeStyle;rounded=0;orthogonalLoop=1;jettySize=auto;html=1;exitX=0;exitY=0.5;exitDx=0;exitDy=0;" parent="1" source="OK1sKgkIxB2whGgdd0nA-12" target="OK1sKgkIxB2whGgdd0nA-15" edge="1">
          <mxGeometry relative="1" as="geometry" />
        </mxCell>
        <mxCell id="OK1sKgkIxB2whGgdd0nA-12" value="&lt;font style=&quot;font-size: 20px;&quot;&gt;BWD 3&lt;/font&gt;" style="rounded=1;whiteSpace=wrap;html=1;fontFamily=Helvetica;" parent="1" vertex="1">
          <mxGeometry x="640" y="329" width="90" height="60" as="geometry" />
        </mxCell>
        <mxCell id="OK1sKgkIxB2whGgdd0nA-13" style="edgeStyle=orthogonalEdgeStyle;rounded=0;orthogonalLoop=1;jettySize=auto;html=1;exitX=0;exitY=0.5;exitDx=0;exitDy=0;" parent="1" source="OK1sKgkIxB2whGgdd0nA-15" target="OK1sKgkIxB2whGgdd0nA-17" edge="1">
          <mxGeometry relative="1" as="geometry" />
        </mxCell>
        <mxCell id="OK1sKgkIxB2whGgdd0nA-15" value="&lt;font style=&quot;font-size: 20px;&quot;&gt;BWD 2&lt;/font&gt;" style="rounded=1;whiteSpace=wrap;html=1;fontFamily=Helvetica;" parent="1" vertex="1">
          <mxGeometry x="490" y="329" width="90" height="60" as="geometry" />
        </mxCell>
        <mxCell id="OK1sKgkIxB2whGgdd0nA-17" value="&lt;font style=&quot;font-size: 20px;&quot;&gt;BWD 1&lt;/font&gt;" style="rounded=1;whiteSpace=wrap;html=1;fontFamily=Helvetica;" parent="1" vertex="1">
          <mxGeometry x="340" y="329" width="90" height="60" as="geometry" />
        </mxCell>
        <mxCell id="OK1sKgkIxB2whGgdd0nA-18" style="rounded=0;orthogonalLoop=1;jettySize=auto;html=1;exitX=0;exitY=0.5;exitDx=0;exitDy=0;entryX=1;entryY=0.5;entryDx=0;entryDy=0;" parent="1" source="OK1sKgkIxB2whGgdd0nA-19" target="OK1sKgkIxB2whGgdd0nA-12" edge="1">
          <mxGeometry relative="1" as="geometry" />
        </mxCell>
        <mxCell id="OK1sKgkIxB2whGgdd0nA-19" value="&lt;font style=&quot;font-size: 20px;&quot; face=&quot;Comic Sans MS&quot;&gt;&lt;br&gt;&lt;/font&gt;" style="rounded=1;whiteSpace=wrap;html=1;" parent="1" vertex="1">
          <mxGeometry x="810" y="271" width="70" height="60" as="geometry" />
        </mxCell>
        <mxCell id="OK1sKgkIxB2whGgdd0nA-20" value="" style="endArrow=classic;html=1;rounded=0;entryX=0;entryY=0.5;entryDx=0;entryDy=0;exitX=1;exitY=0.5;exitDx=0;exitDy=0;" parent="1" source="OK1sKgkIxB2whGgdd0nA-9" target="OK1sKgkIxB2whGgdd0nA-19" edge="1">
          <mxGeometry width="50" height="50" relative="1" as="geometry">
            <mxPoint x="720" y="390" as="sourcePoint" />
            <mxPoint x="770" y="340" as="targetPoint" />
          </mxGeometry>
        </mxCell>
        <mxCell id="OK1sKgkIxB2whGgdd0nA-22" value="&lt;font style=&quot;font-size: 20px;&quot; face=&quot;Comic Sans MS&quot;&gt;4, 7, 8&lt;/font&gt;" style="text;html=1;strokeColor=none;fillColor=none;align=center;verticalAlign=middle;whiteSpace=wrap;rounded=0;" parent="1" vertex="1">
          <mxGeometry x="782" y="235" width="110" height="40" as="geometry" />
        </mxCell>
        <mxCell id="OK1sKgkIxB2whGgdd0nA-23" value="&lt;font style=&quot;font-size: 16px;&quot;&gt;&lt;b&gt;&lt;font face=&quot;Helvetica&quot;&gt;Prediction&lt;/font&gt;&lt;/b&gt;&lt;/font&gt;" style="text;html=1;strokeColor=none;fillColor=none;align=center;verticalAlign=middle;whiteSpace=wrap;rounded=0;fontColor=#000000;fontFamily=Lucida Console;" parent="1" vertex="1">
          <mxGeometry x="790" y="220" width="90" height="20" as="geometry" />
        </mxCell>
        <mxCell id="OK1sKgkIxB2whGgdd0nA-24" value="&lt;font style=&quot;font-size: 20px;&quot; face=&quot;Comic Sans MS&quot;&gt;4, 1, 8&lt;/font&gt;" style="text;html=1;strokeColor=none;fillColor=none;align=center;verticalAlign=middle;whiteSpace=wrap;rounded=0;" parent="1" vertex="1">
          <mxGeometry x="785" y="351" width="105" height="40" as="geometry" />
        </mxCell>
        <mxCell id="OK1sKgkIxB2whGgdd0nA-25" value="" style="endArrow=classic;html=1;rounded=0;exitX=0.75;exitY=0;exitDx=0;exitDy=0;entryX=0.75;entryY=1;entryDx=0;entryDy=0;" parent="1" edge="1">
          <mxGeometry width="50" height="50" relative="1" as="geometry">
            <mxPoint x="862.75" y="352" as="sourcePoint" />
            <mxPoint x="862.5" y="332" as="targetPoint" />
          </mxGeometry>
        </mxCell>
        <mxCell id="OK1sKgkIxB2whGgdd0nA-26" value="&lt;b&gt;&lt;font style=&quot;font-size: 16px;&quot;&gt;Label&lt;/font&gt;&lt;/b&gt;" style="text;html=1;strokeColor=none;fillColor=none;align=center;verticalAlign=middle;whiteSpace=wrap;rounded=0;fontColor=#000000;fontFamily=Helvetica;" parent="1" vertex="1">
          <mxGeometry x="799" y="391" width="80" height="20" as="geometry" />
        </mxCell>
        <mxCell id="OK1sKgkIxB2whGgdd0nA-37" value="&lt;b&gt;&lt;font style=&quot;font-size: 16px;&quot; face=&quot;Helvetica&quot;&gt;Input&lt;/font&gt;&lt;/b&gt;" style="text;html=1;strokeColor=none;fillColor=none;align=center;verticalAlign=middle;whiteSpace=wrap;rounded=0;fontColor=#000000;fontFamily=Lucida Console;" parent="1" vertex="1">
          <mxGeometry x="190" y="280" width="60" height="20" as="geometry" />
        </mxCell>
        <mxCell id="OK1sKgkIxB2whGgdd0nA-38" value="" style="endArrow=classic;html=1;rounded=0;entryX=0;entryY=0.5;entryDx=0;entryDy=0;" parent="1" target="OK1sKgkIxB2whGgdd0nA-4" edge="1">
          <mxGeometry width="50" height="50" relative="1" as="geometry">
            <mxPoint x="290" y="240" as="sourcePoint" />
            <mxPoint x="320" y="130" as="targetPoint" />
          </mxGeometry>
        </mxCell>
        <mxCell id="OK1sKgkIxB2whGgdd0nA-41" value="$$\boldsymbol{\frac{\partial L}{\partial W^{[1]}&lt;br&gt;}}$$" style="text;html=1;strokeColor=none;fillColor=none;align=center;verticalAlign=middle;whiteSpace=wrap;rounded=0;" parent="1" vertex="1">
          <mxGeometry x="336" y="446" width="60" height="30" as="geometry" />
        </mxCell>
        <mxCell id="OK1sKgkIxB2whGgdd0nA-42" value="$$\boldsymbol{\frac{\partial L}{\partial b^{[1]}&lt;br&gt;}}$$" style="text;html=1;strokeColor=none;fillColor=none;align=center;verticalAlign=middle;whiteSpace=wrap;rounded=0;" parent="1" vertex="1">
          <mxGeometry x="381" y="446" width="60" height="30" as="geometry" />
        </mxCell>
        <mxCell id="OK1sKgkIxB2whGgdd0nA-43" value="" style="rounded=0;whiteSpace=wrap;html=1;fillColor=none;" parent="1" vertex="1">
          <mxGeometry x="339.5" y="440" width="90" height="40" as="geometry" />
        </mxCell>
        <mxCell id="OK1sKgkIxB2whGgdd0nA-44" value="$$\boldsymbol{\frac{\partial L}{\partial W^{[2]}&lt;br&gt;}}$$" style="text;html=1;strokeColor=none;fillColor=none;align=center;verticalAlign=middle;whiteSpace=wrap;rounded=0;" parent="1" vertex="1">
          <mxGeometry x="487" y="447" width="60" height="30" as="geometry" />
        </mxCell>
        <mxCell id="OK1sKgkIxB2whGgdd0nA-45" value="$$\boldsymbol{\frac{\partial L}{\partial b^{[2]}&lt;br&gt;}}$$" style="text;html=1;strokeColor=none;fillColor=none;align=center;verticalAlign=middle;whiteSpace=wrap;rounded=0;" parent="1" vertex="1">
          <mxGeometry x="532" y="447" width="60" height="30" as="geometry" />
        </mxCell>
        <mxCell id="OK1sKgkIxB2whGgdd0nA-47" value="" style="rounded=0;whiteSpace=wrap;html=1;fillColor=none;" parent="1" vertex="1">
          <mxGeometry x="640.5" y="442" width="90" height="40" as="geometry" />
        </mxCell>
        <mxCell id="OK1sKgkIxB2whGgdd0nA-48" value="$$\boldsymbol{\frac{\partial L}{\partial W^{[3]}&lt;br&gt;}}$$" style="text;html=1;strokeColor=none;fillColor=none;align=center;verticalAlign=middle;whiteSpace=wrap;rounded=0;" parent="1" vertex="1">
          <mxGeometry x="637" y="446" width="60" height="30" as="geometry" />
        </mxCell>
        <mxCell id="OK1sKgkIxB2whGgdd0nA-49" value="$$\boldsymbol{\frac{\partial L}{\partial b^{[3]}&lt;br&gt;}}$$" style="text;html=1;strokeColor=none;fillColor=none;align=center;verticalAlign=middle;whiteSpace=wrap;rounded=0;" parent="1" vertex="1">
          <mxGeometry x="682" y="446" width="60" height="30" as="geometry" />
        </mxCell>
        <mxCell id="OK1sKgkIxB2whGgdd0nA-50" value="" style="endArrow=classic;html=1;rounded=0;exitX=0.5;exitY=1;exitDx=0;exitDy=0;" parent="1" source="OK1sKgkIxB2whGgdd0nA-17" target="OK1sKgkIxB2whGgdd0nA-43" edge="1">
          <mxGeometry width="50" height="50" relative="1" as="geometry">
            <mxPoint x="230" y="480" as="sourcePoint" />
            <mxPoint x="280" y="430" as="targetPoint" />
          </mxGeometry>
        </mxCell>
        <mxCell id="OK1sKgkIxB2whGgdd0nA-51" value="" style="endArrow=classic;html=1;rounded=0;exitX=0.5;exitY=1;exitDx=0;exitDy=0;entryX=0.5;entryY=0;entryDx=0;entryDy=0;" parent="1" source="OK1sKgkIxB2whGgdd0nA-15" target="OK1sKgkIxB2whGgdd0nA-46" edge="1">
          <mxGeometry width="50" height="50" relative="1" as="geometry">
            <mxPoint x="580" y="640" as="sourcePoint" />
            <mxPoint x="630" y="590" as="targetPoint" />
          </mxGeometry>
        </mxCell>
        <mxCell id="OK1sKgkIxB2whGgdd0nA-52" value="" style="endArrow=classic;html=1;rounded=0;exitX=0.5;exitY=1;exitDx=0;exitDy=0;entryX=0.5;entryY=0;entryDx=0;entryDy=0;" parent="1" source="OK1sKgkIxB2whGgdd0nA-12" target="OK1sKgkIxB2whGgdd0nA-47" edge="1">
          <mxGeometry width="50" height="50" relative="1" as="geometry">
            <mxPoint x="710" y="640" as="sourcePoint" />
            <mxPoint x="760" y="590" as="targetPoint" />
          </mxGeometry>
        </mxCell>
        <mxCell id="OK1sKgkIxB2whGgdd0nA-54" value="" style="rounded=0;whiteSpace=wrap;html=1;fillColor=none;" parent="1" vertex="1">
          <mxGeometry x="497.5" y="555" width="90" height="40" as="geometry" />
        </mxCell>
        <mxCell id="OK1sKgkIxB2whGgdd0nA-55" style="edgeStyle=orthogonalEdgeStyle;rounded=0;orthogonalLoop=1;jettySize=auto;html=1;exitX=1;exitY=0.5;exitDx=0;exitDy=0;entryX=0;entryY=0.5;entryDx=0;entryDy=0;" parent="1" source="OK1sKgkIxB2whGgdd0nA-57" target="OK1sKgkIxB2whGgdd0nA-60" edge="1">
          <mxGeometry relative="1" as="geometry" />
        </mxCell>
        <mxCell id="OK1sKgkIxB2whGgdd0nA-57" value="&lt;font style=&quot;font-size: 20px;&quot;&gt;FWD 1&lt;/font&gt;" style="rounded=1;whiteSpace=wrap;html=1;fontFamily=Helvetica;" parent="1" vertex="1">
          <mxGeometry x="345" y="780" width="90" height="60" as="geometry" />
        </mxCell>
        <mxCell id="OK1sKgkIxB2whGgdd0nA-58" style="edgeStyle=orthogonalEdgeStyle;rounded=0;orthogonalLoop=1;jettySize=auto;html=1;exitX=1;exitY=0.5;exitDx=0;exitDy=0;entryX=0;entryY=0.5;entryDx=0;entryDy=0;" parent="1" source="OK1sKgkIxB2whGgdd0nA-60" target="OK1sKgkIxB2whGgdd0nA-62" edge="1">
          <mxGeometry relative="1" as="geometry" />
        </mxCell>
        <mxCell id="OK1sKgkIxB2whGgdd0nA-60" value="&lt;font style=&quot;font-size: 20px;&quot;&gt;FWD 2&lt;/font&gt;" style="rounded=1;whiteSpace=wrap;html=1;fontFamily=Helvetica;" parent="1" vertex="1">
          <mxGeometry x="495" y="780" width="90" height="60" as="geometry" />
        </mxCell>
        <mxCell id="OK1sKgkIxB2whGgdd0nA-62" value="&lt;font style=&quot;font-size: 20px;&quot;&gt;FWD 3&lt;/font&gt;" style="rounded=1;whiteSpace=wrap;html=1;fontFamily=Helvetica;" parent="1" vertex="1">
          <mxGeometry x="645" y="780" width="90" height="60" as="geometry" />
        </mxCell>
        <mxCell id="OK1sKgkIxB2whGgdd0nA-63" style="edgeStyle=orthogonalEdgeStyle;rounded=0;orthogonalLoop=1;jettySize=auto;html=1;exitX=0;exitY=0.5;exitDx=0;exitDy=0;" parent="1" source="OK1sKgkIxB2whGgdd0nA-64" target="OK1sKgkIxB2whGgdd0nA-66" edge="1">
          <mxGeometry relative="1" as="geometry" />
        </mxCell>
        <mxCell id="OK1sKgkIxB2whGgdd0nA-64" value="&lt;font style=&quot;font-size: 20px;&quot;&gt;BWD 3&lt;/font&gt;" style="rounded=1;whiteSpace=wrap;html=1;fontFamily=Helvetica;" parent="1" vertex="1">
          <mxGeometry x="644.5" y="644" width="90" height="60" as="geometry" />
        </mxCell>
        <mxCell id="OK1sKgkIxB2whGgdd0nA-65" style="edgeStyle=orthogonalEdgeStyle;rounded=0;orthogonalLoop=1;jettySize=auto;html=1;exitX=0;exitY=0.5;exitDx=0;exitDy=0;" parent="1" source="OK1sKgkIxB2whGgdd0nA-66" target="OK1sKgkIxB2whGgdd0nA-67" edge="1">
          <mxGeometry relative="1" as="geometry" />
        </mxCell>
        <mxCell id="OK1sKgkIxB2whGgdd0nA-66" value="&lt;font style=&quot;font-size: 20px;&quot;&gt;BWD 2&lt;/font&gt;" style="rounded=1;whiteSpace=wrap;html=1;fontFamily=Helvetica;" parent="1" vertex="1">
          <mxGeometry x="494.5" y="644" width="90" height="60" as="geometry" />
        </mxCell>
        <mxCell id="OK1sKgkIxB2whGgdd0nA-67" value="&lt;font style=&quot;font-size: 20px;&quot;&gt;BWD 1&lt;/font&gt;" style="rounded=1;whiteSpace=wrap;html=1;fontFamily=Helvetica;" parent="1" vertex="1">
          <mxGeometry x="344.5" y="644" width="90" height="60" as="geometry" />
        </mxCell>
        <mxCell id="OK1sKgkIxB2whGgdd0nA-68" style="rounded=0;orthogonalLoop=1;jettySize=auto;html=1;exitX=0;exitY=0.5;exitDx=0;exitDy=0;entryX=1;entryY=0.5;entryDx=0;entryDy=0;" parent="1" source="OK1sKgkIxB2whGgdd0nA-69" target="OK1sKgkIxB2whGgdd0nA-64" edge="1">
          <mxGeometry relative="1" as="geometry">
            <mxPoint x="761.5" y="674" as="targetPoint" />
          </mxGeometry>
        </mxCell>
        <mxCell id="OK1sKgkIxB2whGgdd0nA-69" value="&lt;font style=&quot;font-size: 20px;&quot; face=&quot;Comic Sans MS&quot;&gt;&lt;br&gt;&lt;/font&gt;" style="rounded=1;whiteSpace=wrap;html=1;" parent="1" vertex="1">
          <mxGeometry x="812" y="715" width="70" height="60" as="geometry" />
        </mxCell>
        <mxCell id="OK1sKgkIxB2whGgdd0nA-70" value="" style="endArrow=classic;html=1;rounded=0;entryX=0;entryY=0.5;entryDx=0;entryDy=0;exitX=1;exitY=0.5;exitDx=0;exitDy=0;" parent="1" source="OK1sKgkIxB2whGgdd0nA-62" target="OK1sKgkIxB2whGgdd0nA-69" edge="1">
          <mxGeometry width="50" height="50" relative="1" as="geometry">
            <mxPoint x="762" y="810" as="sourcePoint" />
            <mxPoint x="802" y="910" as="targetPoint" />
          </mxGeometry>
        </mxCell>
        <mxCell id="OK1sKgkIxB2whGgdd0nA-71" value="&lt;font style=&quot;font-size: 20px;&quot; face=&quot;Comic Sans MS&quot;&gt;1, 6, 2&lt;/font&gt;" style="text;html=1;strokeColor=none;fillColor=none;align=center;verticalAlign=middle;whiteSpace=wrap;rounded=0;" parent="1" vertex="1">
          <mxGeometry x="771" y="800" width="113" height="40" as="geometry" />
        </mxCell>
        <mxCell id="OK1sKgkIxB2whGgdd0nA-73" value="&lt;font style=&quot;font-size: 20px;&quot; face=&quot;Comic Sans MS&quot;&gt;7, 6, 2&lt;/font&gt;" style="text;html=1;strokeColor=none;fillColor=none;align=center;verticalAlign=middle;whiteSpace=wrap;rounded=0;" parent="1" vertex="1">
          <mxGeometry x="780" y="654" width="105" height="40" as="geometry" />
        </mxCell>
        <mxCell id="OK1sKgkIxB2whGgdd0nA-74" value="" style="endArrow=classic;html=1;rounded=0;exitX=0.75;exitY=1;exitDx=0;exitDy=0;entryX=0.671;entryY=0.017;entryDx=0;entryDy=0;entryPerimeter=0;" parent="1" source="OK1sKgkIxB2whGgdd0nA-73" target="OK1sKgkIxB2whGgdd0nA-69" edge="1">
          <mxGeometry width="50" height="50" relative="1" as="geometry">
            <mxPoint x="864.75" y="795" as="sourcePoint" />
            <mxPoint x="792" y="745" as="targetPoint" />
          </mxGeometry>
        </mxCell>
        <mxCell id="OK1sKgkIxB2whGgdd0nA-84" value="" style="endArrow=classic;html=1;rounded=0;entryX=0;entryY=0.5;entryDx=0;entryDy=0;" parent="1" target="OK1sKgkIxB2whGgdd0nA-57" edge="1">
          <mxGeometry width="50" height="50" relative="1" as="geometry">
            <mxPoint x="295" y="810" as="sourcePoint" />
            <mxPoint x="325" y="700" as="targetPoint" />
          </mxGeometry>
        </mxCell>
        <mxCell id="OK1sKgkIxB2whGgdd0nA-85" value="$$\boldsymbol{\frac{\partial L}{\partial W^{[1]}&lt;br&gt;}}$$" style="text;html=1;strokeColor=none;fillColor=none;align=center;verticalAlign=middle;whiteSpace=wrap;rounded=0;" parent="1" vertex="1">
          <mxGeometry x="341" y="560" width="60" height="30" as="geometry" />
        </mxCell>
        <mxCell id="OK1sKgkIxB2whGgdd0nA-86" value="$$\boldsymbol{\frac{\partial L}{\partial b^{[1]}&lt;br&gt;}}$$" style="text;html=1;strokeColor=none;fillColor=none;align=center;verticalAlign=middle;whiteSpace=wrap;rounded=0;" parent="1" vertex="1">
          <mxGeometry x="386" y="560" width="60" height="30" as="geometry" />
        </mxCell>
        <mxCell id="OK1sKgkIxB2whGgdd0nA-87" value="" style="rounded=0;whiteSpace=wrap;html=1;fillColor=none;" parent="1" vertex="1">
          <mxGeometry x="344.5" y="554" width="90" height="40" as="geometry" />
        </mxCell>
        <mxCell id="OK1sKgkIxB2whGgdd0nA-88" value="$$\boldsymbol{\frac{\partial L}{\partial W^{[2]}&lt;br&gt;}}$$" style="text;html=1;strokeColor=none;fillColor=none;align=center;verticalAlign=middle;whiteSpace=wrap;rounded=0;" parent="1" vertex="1">
          <mxGeometry x="494" y="561" width="60" height="30" as="geometry" />
        </mxCell>
        <mxCell id="OK1sKgkIxB2whGgdd0nA-89" value="$$\boldsymbol{\frac{\partial L}{\partial b^{[2]}&lt;br&gt;}}$$" style="text;html=1;strokeColor=none;fillColor=none;align=center;verticalAlign=middle;whiteSpace=wrap;rounded=0;" parent="1" vertex="1">
          <mxGeometry x="539" y="561" width="60" height="30" as="geometry" />
        </mxCell>
        <mxCell id="OK1sKgkIxB2whGgdd0nA-90" value="" style="rounded=0;whiteSpace=wrap;html=1;fillColor=none;" parent="1" vertex="1">
          <mxGeometry x="647.5" y="556" width="90" height="40" as="geometry" />
        </mxCell>
        <mxCell id="OK1sKgkIxB2whGgdd0nA-91" value="$$\boldsymbol{\frac{\partial L}{\partial W^{[3]}&lt;br&gt;}}$$" style="text;html=1;strokeColor=none;fillColor=none;align=center;verticalAlign=middle;whiteSpace=wrap;rounded=0;" parent="1" vertex="1">
          <mxGeometry x="644" y="562" width="60" height="30" as="geometry" />
        </mxCell>
        <mxCell id="OK1sKgkIxB2whGgdd0nA-92" value="$$\boldsymbol{\frac{\partial L}{\partial b^{[3]}&lt;br&gt;}}$$" style="text;html=1;strokeColor=none;fillColor=none;align=center;verticalAlign=middle;whiteSpace=wrap;rounded=0;" parent="1" vertex="1">
          <mxGeometry x="689" y="562" width="60" height="30" as="geometry" />
        </mxCell>
        <mxCell id="OK1sKgkIxB2whGgdd0nA-102" value="" style="group" parent="1" vertex="1" connectable="0">
          <mxGeometry x="150" y="745" width="140" height="90" as="geometry" />
        </mxCell>
        <mxCell id="OK1sKgkIxB2whGgdd0nA-103" value="7" style="rounded=0;whiteSpace=wrap;html=1;fontSize=20;fontFamily=Comic Sans MS;fillColor=#000000;fontColor=#ffffff;" parent="OK1sKgkIxB2whGgdd0nA-102" vertex="1">
          <mxGeometry y="50" width="40" height="40" as="geometry" />
        </mxCell>
        <mxCell id="OK1sKgkIxB2whGgdd0nA-104" value="6" style="rounded=0;whiteSpace=wrap;html=1;fontSize=20;fontFamily=Comic Sans MS;fillColor=#000000;fontColor=#ffffff;" parent="OK1sKgkIxB2whGgdd0nA-102" vertex="1">
          <mxGeometry x="50" y="50" width="40" height="40" as="geometry" />
        </mxCell>
        <mxCell id="OK1sKgkIxB2whGgdd0nA-105" value="2" style="rounded=0;whiteSpace=wrap;html=1;fontSize=20;fontFamily=Comic Sans MS;fillColor=#000000;fontColor=#ffffff;" parent="OK1sKgkIxB2whGgdd0nA-102" vertex="1">
          <mxGeometry x="100" y="50" width="40" height="40" as="geometry" />
        </mxCell>
        <mxCell id="VrmCHwrFICgrSPbobZky-1" value="&lt;b&gt;&lt;font style=&quot;font-size: 16px;&quot; face=&quot;Helvetica&quot;&gt;Input&lt;/font&gt;&lt;/b&gt;" style="text;html=1;strokeColor=none;fillColor=none;align=center;verticalAlign=middle;whiteSpace=wrap;rounded=0;fontColor=#000000;fontFamily=Lucida Console;" vertex="1" parent="OK1sKgkIxB2whGgdd0nA-102">
          <mxGeometry x="40" y="5" width="60" height="20" as="geometry" />
        </mxCell>
        <mxCell id="OK1sKgkIxB2whGgdd0nA-107" value="4" style="rounded=0;whiteSpace=wrap;html=1;fontSize=20;fontFamily=Comic Sans MS;fillColor=#000000;fontColor=#ffffff;" parent="1" vertex="1">
          <mxGeometry x="141" y="220" width="40" height="40" as="geometry" />
        </mxCell>
        <mxCell id="OK1sKgkIxB2whGgdd0nA-108" value="1" style="rounded=0;whiteSpace=wrap;html=1;fontSize=20;fontFamily=Comic Sans MS;fillColor=#000000;fontColor=#ffffff;" parent="1" vertex="1">
          <mxGeometry x="191" y="220" width="40" height="40" as="geometry" />
        </mxCell>
        <mxCell id="OK1sKgkIxB2whGgdd0nA-109" value="8" style="rounded=0;whiteSpace=wrap;html=1;fontSize=20;fontFamily=Comic Sans MS;fillColor=#000000;fontColor=#ffffff;" parent="1" vertex="1">
          <mxGeometry x="241" y="220" width="40" height="40" as="geometry" />
        </mxCell>
        <mxCell id="OK1sKgkIxB2whGgdd0nA-118" style="edgeStyle=orthogonalEdgeStyle;rounded=0;orthogonalLoop=1;jettySize=auto;html=1;exitX=0.5;exitY=1;exitDx=0;exitDy=0;" parent="1" source="OK1sKgkIxB2whGgdd0nA-26" target="OK1sKgkIxB2whGgdd0nA-26" edge="1">
          <mxGeometry relative="1" as="geometry" />
        </mxCell>
        <mxCell id="OK1sKgkIxB2whGgdd0nA-119" value="$$L$$" style="text;html=1;strokeColor=none;fillColor=none;align=center;verticalAlign=middle;whiteSpace=wrap;rounded=0;fontSize=18;" parent="1" vertex="1">
          <mxGeometry x="824" y="285" width="43" height="30" as="geometry" />
        </mxCell>
        <mxCell id="OK1sKgkIxB2whGgdd0nA-120" value="$$L$$" style="text;html=1;strokeColor=none;fillColor=none;align=center;verticalAlign=middle;whiteSpace=wrap;rounded=0;fontSize=18;" parent="1" vertex="1">
          <mxGeometry x="825.5" y="730" width="43" height="30" as="geometry" />
        </mxCell>
        <mxCell id="OK1sKgkIxB2whGgdd0nA-121" value="&lt;font style=&quot;font-size: 32px;&quot;&gt;GPU 0&lt;/font&gt;" style="text;html=1;strokeColor=none;fillColor=none;align=center;verticalAlign=middle;whiteSpace=wrap;rounded=0;fontStyle=1" parent="1" vertex="1">
          <mxGeometry x="136" y="448" width="120" height="30" as="geometry" />
        </mxCell>
        <mxCell id="OK1sKgkIxB2whGgdd0nA-122" value="&lt;font style=&quot;font-size: 32px;&quot;&gt;GPU 1&lt;/font&gt;" style="text;html=1;strokeColor=none;fillColor=none;align=center;verticalAlign=middle;whiteSpace=wrap;rounded=0;fontStyle=1" parent="1" vertex="1">
          <mxGeometry x="141" y="561" width="120" height="30" as="geometry" />
        </mxCell>
        <mxCell id="xT6SQZ7aZT8mWixclbQq-1" value="" style="endArrow=classic;html=1;rounded=0;exitX=0.5;exitY=0;exitDx=0;exitDy=0;entryX=0.5;entryY=1;entryDx=0;entryDy=0;" parent="1" source="OK1sKgkIxB2whGgdd0nA-57" target="OK1sKgkIxB2whGgdd0nA-67" edge="1">
          <mxGeometry width="50" height="50" relative="1" as="geometry">
            <mxPoint x="220" y="755" as="sourcePoint" />
            <mxPoint x="270" y="705" as="targetPoint" />
          </mxGeometry>
        </mxCell>
        <mxCell id="xT6SQZ7aZT8mWixclbQq-2" value="" style="endArrow=classic;html=1;rounded=0;exitX=0.5;exitY=0;exitDx=0;exitDy=0;entryX=0.5;entryY=1;entryDx=0;entryDy=0;" parent="1" source="OK1sKgkIxB2whGgdd0nA-60" target="OK1sKgkIxB2whGgdd0nA-66" edge="1">
          <mxGeometry width="50" height="50" relative="1" as="geometry">
            <mxPoint x="400" y="790" as="sourcePoint" />
            <mxPoint x="400" y="714" as="targetPoint" />
          </mxGeometry>
        </mxCell>
        <mxCell id="xT6SQZ7aZT8mWixclbQq-3" value="" style="endArrow=classic;html=1;rounded=0;exitX=0.5;exitY=0;exitDx=0;exitDy=0;entryX=0.5;entryY=1;entryDx=0;entryDy=0;" parent="1" source="OK1sKgkIxB2whGgdd0nA-62" target="OK1sKgkIxB2whGgdd0nA-64" edge="1">
          <mxGeometry width="50" height="50" relative="1" as="geometry">
            <mxPoint x="550" y="790" as="sourcePoint" />
            <mxPoint x="550" y="714" as="targetPoint" />
          </mxGeometry>
        </mxCell>
        <mxCell id="xT6SQZ7aZT8mWixclbQq-6" value="" style="endArrow=classic;startArrow=classic;html=1;rounded=0;" parent="1" edge="1">
          <mxGeometry width="50" height="50" relative="1" as="geometry">
            <mxPoint x="686" y="538" as="sourcePoint" />
            <mxPoint x="686" y="488" as="targetPoint" />
          </mxGeometry>
        </mxCell>
        <mxCell id="xT6SQZ7aZT8mWixclbQq-7" value="" style="endArrow=classic;html=1;rounded=0;exitX=0.5;exitY=0;exitDx=0;exitDy=0;entryX=0.5;entryY=1;entryDx=0;entryDy=0;" parent="1" source="OK1sKgkIxB2whGgdd0nA-67" target="OK1sKgkIxB2whGgdd0nA-87" edge="1">
          <mxGeometry width="50" height="50" relative="1" as="geometry">
            <mxPoint x="210" y="720" as="sourcePoint" />
            <mxPoint x="260" y="670" as="targetPoint" />
          </mxGeometry>
        </mxCell>
        <mxCell id="xT6SQZ7aZT8mWixclbQq-8" value="" style="endArrow=classic;html=1;rounded=0;exitX=0.5;exitY=0;exitDx=0;exitDy=0;entryX=0.467;entryY=1.05;entryDx=0;entryDy=0;entryPerimeter=0;" parent="1" source="OK1sKgkIxB2whGgdd0nA-66" target="OK1sKgkIxB2whGgdd0nA-54" edge="1">
          <mxGeometry width="50" height="50" relative="1" as="geometry">
            <mxPoint x="580" y="660" as="sourcePoint" />
            <mxPoint x="540" y="600" as="targetPoint" />
          </mxGeometry>
        </mxCell>
        <mxCell id="xT6SQZ7aZT8mWixclbQq-9" value="" style="endArrow=classic;html=1;rounded=0;exitX=0.5;exitY=0;exitDx=0;exitDy=0;entryX=0.767;entryY=1.267;entryDx=0;entryDy=0;entryPerimeter=0;" parent="1" source="OK1sKgkIxB2whGgdd0nA-64" target="OK1sKgkIxB2whGgdd0nA-91" edge="1">
          <mxGeometry width="50" height="50" relative="1" as="geometry">
            <mxPoint x="740" y="660" as="sourcePoint" />
            <mxPoint x="790" y="610" as="targetPoint" />
          </mxGeometry>
        </mxCell>
        <mxCell id="xT6SQZ7aZT8mWixclbQq-10" value="" style="endArrow=classic;startArrow=classic;html=1;rounded=0;" parent="1" edge="1">
          <mxGeometry width="50" height="50" relative="1" as="geometry">
            <mxPoint x="535.25" y="536" as="sourcePoint" />
            <mxPoint x="535.25" y="486" as="targetPoint" />
          </mxGeometry>
        </mxCell>
        <mxCell id="xT6SQZ7aZT8mWixclbQq-11" value="" style="endArrow=classic;startArrow=classic;html=1;rounded=0;" parent="1" edge="1">
          <mxGeometry width="50" height="50" relative="1" as="geometry">
            <mxPoint x="386" y="536" as="sourcePoint" />
            <mxPoint x="386" y="486" as="targetPoint" />
          </mxGeometry>
        </mxCell>
        <mxCell id="xT6SQZ7aZT8mWixclbQq-12" value="&lt;font style=&quot;font-size: 24px;&quot; face=&quot;Courier New&quot;&gt;&lt;b&gt;MPI.AllReduce&lt;/b&gt;&lt;/font&gt;" style="text;html=1;strokeColor=none;fillColor=none;align=center;verticalAlign=middle;whiteSpace=wrap;rounded=0;" parent="1" vertex="1">
          <mxGeometry x="150" y="510" width="217" height="30" as="geometry" />
        </mxCell>
        <mxCell id="VrmCHwrFICgrSPbobZky-2" value="&lt;font style=&quot;font-size: 16px;&quot;&gt;&lt;b&gt;&lt;font face=&quot;Helvetica&quot;&gt;Prediction&lt;/font&gt;&lt;/b&gt;&lt;/font&gt;" style="text;html=1;strokeColor=none;fillColor=none;align=center;verticalAlign=middle;whiteSpace=wrap;rounded=0;fontColor=#000000;fontFamily=Lucida Console;" vertex="1" parent="1">
          <mxGeometry x="789" y="780" width="90" height="20" as="geometry" />
        </mxCell>
        <mxCell id="VrmCHwrFICgrSPbobZky-4" value="&lt;b&gt;&lt;font style=&quot;font-size: 16px;&quot;&gt;Label&lt;/font&gt;&lt;/b&gt;" style="text;html=1;strokeColor=none;fillColor=none;align=center;verticalAlign=middle;whiteSpace=wrap;rounded=0;fontColor=#000000;fontFamily=Helvetica;" vertex="1" parent="1">
          <mxGeometry x="792.5" y="634" width="80" height="20" as="geometry" />
        </mxCell>
      </root>
    </mxGraphModel>
  </diagram>
</mxfile>
